<?xml version="1.0" standalone="no"?>
<!DOCTYPE svg PUBLIC "-//W3C//DTD SVG 20010904//EN"
 "http://www.w3.org/TR/2001/REC-SVG-20010904/DTD/svg10.dtd">
<svg version="1.0" xmlns="http://www.w3.org/2000/svg"
 width="1262.000000pt" height="618.000000pt" viewBox="0 0 1262.000000 618.000000"
 preserveAspectRatio="xMidYMid meet">

<g transform="translate(0.000000,618.000000) scale(0.100000,-0.100000)"
fill="#000000" stroke="none">
<path d="M3976 4904 c-132 -29 -271 -112 -348 -206 -41 -51 -1277 -1968 -1319
-2047 -48 -89 -37 -195 30 -272 89 -105 254 -119 351 -30 24 22 287 421 680
1031 353 547 650 1003 662 1013 23 19 79 23 110 6 48 -26 48 -27 48 -833 0
-506 4 -773 11 -808 6 -29 29 -91 51 -137 96 -201 306 -331 532 -331 275 1
524 205 581 475 22 106 22 1562 0 1605 -19 37 -43 50 -90 50 -47 0 -71 -13
-90 -50 -13 -25 -15 -130 -15 -783 0 -725 -1 -757 -20 -818 -36 -117 -142
-222 -259 -256 -83 -24 -200 -14 -275 23 -98 48 -171 131 -210 239 -7 20 -12
290 -16 830 l-5 800 -27 51 c-32 61 -94 119 -156 146 -36 16 -60 20 -122 16
-90 -5 -159 -38 -218 -102 -20 -23 -325 -488 -676 -1033 -524 -814 -643 -993
-660 -993 -25 0 -46 17 -46 37 0 11 1138 1792 1262 1975 55 83 102 124 187
166 70 35 81 37 165 37 77 -1 100 -5 149 -28 78 -36 128 -77 166 -135 70 -109
65 -52 71 -937 l5 -800 23 -46 c29 -60 83 -113 146 -144 69 -35 179 -35 251
-1 69 32 130 96 155 162 19 53 20 74 20 808 0 468 4 774 10 807 43 223 274
366 491 303 108 -32 199 -110 248 -213 l26 -56 5 -1030 c4 -811 8 -1035 18
-1052 15 -26 61 -53 92 -53 29 0 77 27 90 49 7 13 10 358 10 1038 0 1118 2
1081 -61 1206 -63 125 -149 211 -275 275 -65 33 -186 62 -258 62 -67 0 -184
-25 -246 -53 -165 -73 -302 -242 -339 -415 -8 -37 -11 -293 -11 -823 l0 -771
-34 -34 c-42 -42 -82 -45 -123 -10 l-28 24 -6 789 c-6 875 -3 835 -75 973 -47
90 -111 160 -200 219 -127 86 -293 118 -438 85z"/>
<path d="M6995 4905 c-318 -60 -566 -305 -630 -624 -10 -47 -15 -107 -13 -139
4 -47 10 -60 37 -84 69 -61 171 -18 171 74 0 70 27 177 65 256 47 99 151 205
251 255 127 64 160 67 749 67 344 0 533 -4 546 -10 11 -6 19 -21 19 -35 0 -14
-8 -29 -19 -35 -13 -6 -205 -10 -553 -10 -580 0 -591 -1 -708 -57 -116 -56
-221 -195 -249 -331 -42 -202 60 -426 238 -520 114 -61 125 -62 580 -62 462 0
488 -3 611 -65 38 -19 97 -61 132 -94 106 -100 161 -213 179 -370 11 -96 24
-122 69 -141 47 -19 99 -4 127 39 21 31 23 42 17 110 -32 362 -302 665 -645
720 -37 6 -236 11 -465 11 -453 0 -469 2 -547 70 -65 57 -91 118 -91 205 1 86
28 150 88 201 83 72 48 68 691 74 l580 5 46 27 c90 53 129 120 129 221 0 112
-66 207 -169 242 -38 13 -127 15 -605 14 -420 -1 -579 -4 -631 -14z"/>
<path d="M8964 4910 c-12 -4 -31 -21 -43 -36 l-21 -27 0 -1244 c0 -1106 2
-1246 15 -1267 35 -53 121 -58 166 -10 l24 26 3 1234 c3 1370 6 1291 -62 1319
-40 17 -52 17 -82 5z"/>
<path d="M10490 4907 c-19 -7 -42 -17 -51 -23 -9 -5 -282 -272 -606 -594 -557
-553 -591 -588 -611 -643 -22 -57 -22 -67 -22 -673 0 -403 4 -622 10 -635 6
-10 24 -26 40 -34 45 -23 85 -19 122 14 l33 29 3 613 2 613 218 216 c119 118
377 374 573 569 302 299 360 352 378 346 11 -3 24 -18 27 -32 6 -23 -41 -72
-489 -522 -332 -332 -498 -505 -502 -523 -4 -16 -4 -40 -1 -55 5 -19 166 -185
502 -518 459 -454 496 -492 492 -520 -2 -25 -8 -31 -32 -33 -26 -3 -53 20
-267 234 -231 231 -240 239 -278 239 -69 0 -125 -77 -102 -138 13 -32 484
-498 528 -522 95 -49 228 -23 302 61 44 50 61 100 61 175 -1 102 -6 108 -495
599 l-455 455 450 450 c493 492 500 501 500 607 0 104 -48 180 -143 228 -66
33 -126 38 -187 17z"/>
<path d="M7094 3546 c-63 -28 -78 -120 -27 -168 l25 -23 406 -5 c395 -5 408
-6 448 -27 66 -35 101 -70 129 -128 33 -66 37 -168 11 -228 -22 -51 -81 -114
-130 -140 -41 -22 -48 -22 -676 -27 -464 -4 -642 -8 -662 -17 -40 -18 -107
-82 -128 -123 -64 -126 -8 -285 125 -346 l50 -24 593 0 c509 0 597 2 622 15
37 19 50 43 50 90 0 47 -13 71 -50 90 -25 13 -111 15 -604 15 l-575 0 -15 22
c-13 19 -14 25 -2 43 13 20 23 20 643 25 l630 5 85 42 c194 96 300 294 269
501 -30 202 -182 366 -378 407 -95 20 -793 21 -839 1z"/>
<path d="M6350 1137 c-60 -32 -82 -75 -78 -154 6 -101 62 -153 164 -153 94 0
157 67 156 166 -1 130 -126 203 -242 141z m124 -51 c62 -26 75 -127 21 -173
-31 -27 -90 -31 -122 -8 -47 33 -53 123 -10 162 38 35 62 39 111 19z"/>
<path d="M3130 990 l0 -160 78 0 c91 0 135 18 169 69 27 40 31 122 9 176 -24
56 -66 75 -168 75 l-88 0 0 -160z m178 74 c16 -19 22 -37 22 -75 0 -66 -30
-99 -90 -99 l-40 0 0 106 0 107 43 -7 c27 -4 50 -15 65 -32z"/>
<path d="M3820 990 l0 -160 95 0 95 0 0 30 0 30 -60 0 -60 0 0 35 0 35 50 0
c49 0 50 1 50 30 0 29 -1 30 -50 30 l-50 0 0 40 0 40 60 0 c57 0 60 1 60 25 0
25 0 25 -95 25 l-95 0 0 -160z"/>
<path d="M4400 1143 c0 -5 25 -75 55 -157 30 -82 55 -151 55 -153 0 -2 17 -3
38 -3 l38 0 54 148 c29 81 55 153 58 160 3 8 -7 12 -31 12 l-35 0 -37 -110
c-20 -60 -40 -112 -44 -114 -3 -2 -24 47 -46 110 l-39 114 -33 0 c-18 0 -33
-3 -33 -7z"/>
<path d="M5110 990 l0 -160 90 0 90 0 0 30 0 30 -60 0 -60 0 0 35 0 35 55 0
c54 0 55 0 55 29 0 29 -2 30 -52 33 l-53 3 0 35 0 35 58 3 c53 3 57 5 57 27 0
25 -1 25 -90 25 l-90 0 0 -160z"/>
<path d="M5720 990 l0 -160 80 0 80 0 0 30 c0 29 -1 30 -50 30 l-50 0 0 130 0
130 -30 0 -30 0 0 -160z"/>
<path d="M7010 990 l0 -160 35 0 35 0 0 60 0 60 50 0 c29 0 61 7 75 16 34 22
50 75 35 119 -18 54 -42 65 -142 65 l-88 0 0 -160z m151 100 c12 -7 19 -21 19
-40 0 -34 -23 -50 -69 -50 -30 0 -31 1 -31 50 0 49 1 50 31 50 17 0 39 -5 50
-10z"/>
<path d="M7670 1137 c0 -14 -17 -203 -24 -269 -4 -37 -3 -38 29 -38 33 0 34 0
39 58 4 31 10 84 14 117 l8 60 39 -117 c34 -103 42 -118 62 -118 19 0 26 14
60 116 37 113 38 115 45 77 4 -21 10 -73 13 -115 l7 -78 34 0 c30 0 34 3 30
23 -3 12 -8 65 -11 117 -3 52 -8 114 -11 138 l-6 42 -48 0 -48 0 -32 -95 c-17
-52 -33 -95 -35 -95 -2 0 -18 43 -35 95 l-32 95 -49 0 c-34 0 -49 -4 -49 -13z"/>
<path d="M8450 990 l0 -160 95 0 95 0 0 30 0 30 -60 0 -60 0 0 35 0 35 50 0
c49 0 50 1 50 30 0 29 -1 30 -50 30 l-50 0 0 40 0 40 60 0 c57 0 60 1 60 25 0
25 0 25 -95 25 l-95 0 0 -160z"/>
<path d="M9060 990 l0 -160 35 0 34 0 3 110 3 110 66 -108 c65 -106 66 -107
107 -110 l42 -3 0 160 0 161 -35 0 -34 0 -3 -109 -3 -110 -68 110 c-68 109
-68 109 -108 109 l-39 0 0 -160z"/>
<path d="M9750 1126 c0 -21 5 -25 38 -28 l37 -3 3 -132 3 -133 29 0 29 0 3
133 3 132 38 3 c32 3 37 7 37 28 0 24 0 24 -110 24 -110 0 -110 0 -110 -24z"/>
<path d="M2050 1025 l0 -55 425 0 425 0 0 55 0 55 -425 0 -425 0 0 -55z"/>
<path d="M10170 1025 l0 -55 425 0 425 0 0 55 0 55 -425 0 -425 0 0 -55z"/>
</g>
</svg>
